<?xml version="1.0" encoding="UTF-8" standalone="no"?>
<svg
   width="4000px"
   height="px"
   viewBox="0 0 3999 3964"
   version="1.1"
   id="svg16"
   sodipodi:docname="infra.svg"
   inkscape:version="1.4 (e7c3feb1, 2024-10-09)"
   xmlns:inkscape="http://www.inkscape.org/namespaces/inkscape"
   xmlns:sodipodi="http://sodipodi.sourceforge.net/DTD/sodipodi-0.dtd"
   xmlns="http://www.w3.org/2000/svg"
   xmlns:svg="http://www.w3.org/2000/svg">
  <defs
     id="defs16" />
  <sodipodi:namedview
     id="namedview16"
     pagecolor="#ffffff"
     bordercolor="#000000"
     borderopacity="0.25"
     inkscape:showpageshadow="2"
     inkscape:pageopacity="0.0"
     inkscape:pagecheckerboard="0"
     inkscape:deskcolor="#d1d1d1"
     inkscape:zoom="0.10336161"
     inkscape:rotation="11"
     inkscape:cx="2973.9708"
     inkscape:cy="2319.5391"
     inkscape:window-width="1544"
     inkscape:window-height="931"
     inkscape:window-x="0"
     inkscape:window-y="38"
     inkscape:window-maximized="0"
     inkscape:current-layer="svg16" />
  <g
     id="surface1"
     style="fill:#27c2a0;fill-opacity:1">
    <path
       style="stroke:none;fill-rule:nonzero;fill:#27c2a0;fill-opacity:1"
       d="M 913.164062 2115.027344 C 1045.71875 2115.027344 1175.597656 2114.578125 1305.921875 2115.472656 C 1323.328125 2115.472656 1329.578125 2111.453125 1328.6875 2093.152344 C 1327.347656 2066.816406 1327.792969 2039.585938 1328.6875 2012.800781 C 1329.132812 2001.195312 1325.5625 1998.515625 1313.957031 1998.964844 C 1252.367188 1999.410156 1190.773438 1998.964844 1128.734375 1998.964844 C 869.871094 1998.964844 611.007812 1999.410156 352.144531 1998.515625 C 334.738281 1998.515625 322.6875 2003.425781 316.4375 2018.15625 C 304.386719 2046.28125 257.972656 2058.332031 235.210938 2051.191406 C 195.933594 2038.246094 184.328125 2011.460938 181.203125 1985.125 C 175.847656 1942.269531 205.304688 1917.71875 231.636719 1906.558594 C 261.542969 1894.507812 298.585938 1911.023438 320.007812 1940.929688 C 324.917969 1947.628906 336.078125 1953.878906 344.109375 1953.878906 C 665.457031 1954.324219 986.808594 1954.324219 1308.15625 1954.769531 C 1323.777344 1954.769531 1329.578125 1950.753906 1328.6875 1934.683594 C 1327.347656 1914.59375 1328.238281 1894.507812 1328.238281 1874.417969 C 1328.238281 1864.152344 1330.472656 1846.742188 1326.453125 1844.957031 C 1313.957031 1839.597656 1298.78125 1838.261719 1284.5 1838.707031 C 1238.53125 1839.152344 1192.113281 1841.386719 1146.140625 1842.722656 C 1141.234375 1842.722656 1136.324219 1842.722656 1131.859375 1842.722656 C 1068.929688 1841.386719 1006 1839.597656 943.066406 1838.707031 C 929.679688 1838.261719 916.289062 1842.722656 902.453125 1842.722656 C 832.382812 1843.171875 762.308594 1842.722656 692.238281 1842.722656 C 673.9375 1843.171875 659.210938 1837.367188 646.265625 1823.976562 C 606.992188 1783.355469 565.929688 1744.070312 526.652344 1703.449219 C 500.320312 1676.21875 471.757812 1661.488281 431.140625 1663.273438 C 349.464844 1666.398438 267.789062 1664.613281 185.667969 1663.71875 C 166.476562 1663.71875 153.085938 1668.628906 143.714844 1686.039062 C 128.984375 1712.824219 103.992188 1725.769531 74.535156 1721.75 C 46.417969 1717.734375 24.992188 1700.324219 12.941406 1672.648438 C 0 1642.292969 13.390625 1613.277344 31.242188 1593.636719 C 48.648438 1574.886719 91.046875 1568.191406 112.472656 1580.242188 C 124.074219 1586.9375 132.554688 1598.992188 144.160156 1606.132812 C 155.316406 1613.722656 168.707031 1623.097656 181.203125 1623.097656 C 281.625 1624.882812 382.046875 1624.4375 482.46875 1623.988281 C 498.089844 1623.542969 509.695312 1628.453125 520.851562 1639.613281 C 564.589844 1684.253906 608.777344 1728 652.960938 1772.195312 C 670.367188 1790.050781 689.558594 1798.976562 715.890625 1798.53125 C 911.824219 1797.636719 1107.3125 1797.636719 1302.800781 1798.53125 C 1323.777344 1798.53125 1330.472656 1793.175781 1328.6875 1772.640625 C 1326.898438 1752.105469 1326.898438 1731.125 1328.6875 1710.144531 C 1330.472656 1688.269531 1324.222656 1681.574219 1301.015625 1681.574219 C 1112.222656 1682.46875 923.429688 1682.023438 734.191406 1682.46875 C 716.785156 1682.46875 704.289062 1676.664062 692.238281 1664.613281 C 626.628906 1598.097656 560.128906 1532.03125 494.074219 1465.964844 C 483.359375 1454.804688 471.757812 1449.449219 456.136719 1449.449219 C 400.792969 1450.34375 345.894531 1449.003906 291 1450.34375 C 273.144531 1450.789062 266.898438 1441.859375 266.453125 1428.023438 C 266.003906 1413.738281 272.699219 1404.808594 290.105469 1404.808594 C 350.804688 1405.703125 411.949219 1404.808594 473.097656 1405.703125 C 483.359375 1406.148438 495.859375 1411.058594 503.445312 1417.753906 C 574.855469 1486.5 644.929688 1556.136719 716.339844 1624.882812 C 723.035156 1631.578125 734.636719 1636.9375 744.457031 1636.9375 C 933.25 1637.828125 1122.039062 1637.382812 1311.277344 1637.828125 C 1326.007812 1637.828125 1329.132812 1633.8125 1328.6875 1619.972656 C 1327.347656 1597.652344 1326.898438 1574.886719 1328.6875 1553.011719 C 1330.023438 1532.480469 1324.667969 1525.335938 1302.351562 1525.335938 C 1131.859375 1526.230469 961.367188 1525.335938 791.320312 1526.230469 C 771.234375 1526.230469 756.953125 1520.425781 743.5625 1506.140625 C 720.800781 1482.035156 696.699219 1458.824219 673.046875 1435.164062 C 606.097656 1368.203125 538.703125 1300.351562 470.863281 1233.839844 C 464.617188 1227.589844 453.457031 1223.125 444.53125 1222.679688 C 406.59375 1221.785156 368.65625 1221.339844 330.722656 1222.679688 C 312.867188 1223.574219 309.742188 1215.984375 310.191406 1200.359375 C 310.636719 1186.96875 310.636719 1176.699219 329.828125 1177.148438 C 373.566406 1178.488281 417.304688 1176.699219 461.046875 1178.488281 C 472.648438 1178.933594 486.039062 1186.523438 494.074219 1194.558594 C 585.566406 1284.730469 676.171875 1375.792969 766.773438 1466.859375 C 777.039062 1477.125 786.855469 1481.589844 801.140625 1481.589844 C 961.8125 1481.144531 1122.488281 1481.144531 1283.160156 1481.144531 C 1328.238281 1481.144531 1327.347656 1481.144531 1328.6875 1434.71875 C 1329.578125 1405.703125 1330.917969 1375.347656 1338.058594 1347.222656 C 1348.769531 1303.03125 1394.292969 1271.335938 1439.820312 1271.335938 C 1452.316406 1271.335938 1465.257812 1270.445312 1477.753906 1271.785156 C 1496.5 1273.570312 1503.195312 1267.765625 1502.75 1247.679688 C 1501.410156 1186.523438 1502.304688 1125.8125 1502.304688 1064.65625 C 1502.304688 958.859375 1501.855469 853.511719 1502.75 747.714844 C 1502.75 733.875 1498.285156 724.5 1488.914062 715.128906 C 1426.429688 653.523438 1365.285156 590.136719 1301.90625 529.425781 C 1276.914062 505.320312 1278.699219 477.199219 1279.589844 447.289062 C 1280.035156 419.167969 1279.589844 391.042969 1279.144531 362.921875 C 1279.144531 358.011719 1279.144531 352.652344 1279.144531 347.742188 C 1279.144531 315.15625 1279.144531 283.015625 1279.144531 250.875 C 1279.144531 222.75 1280.035156 194.183594 1278.699219 166.058594 C 1278.25 158.917969 1272.449219 149.097656 1266.203125 145.523438 C 1234.960938 126.777344 1222.460938 96.421875 1226.03125 70.53125 C 1230.941406 34.820312 1263.523438 5.804688 1297.445312 3.570312 C 1324.667969 1.785156 1363.945312 25.445312 1372.871094 53.566406 C 1384.476562 88.386719 1373.761719 122.3125 1342.96875 141.507812 C 1328.6875 150.4375 1323.328125 159.808594 1323.328125 176.328125 C 1324.222656 273.195312 1323.328125 370.0625 1324.667969 466.484375 C 1324.667969 478.984375 1330.917969 493.714844 1339.398438 502.640625 C 1402.328125 567.371094 1467.042969 631.652344 1531.3125 695.484375 C 1542.472656 706.199219 1547.382812 717.804688 1547.382812 733.429688 C 1546.933594 903.058594 1546.933594 1072.691406 1546.933594 1242.320312 C 1546.933594 1269.105469 1549.167969 1271.335938 1575.945312 1271.335938 C 1599.152344 1271.335938 1621.914062 1270.890625 1645.125 1271.785156 C 1658.515625 1272.230469 1663.421875 1267.765625 1663.421875 1254.375 C 1662.976562 1065.996094 1662.976562 877.617188 1662.53125 689.683594 C 1662.53125 681.199219 1658.066406 671.378906 1652.265625 665.128906 C 1611.652344 623.617188 1570.144531 582.992188 1529.527344 541.925781 C 1507.210938 519.605469 1484.898438 498.179688 1463.472656 475.414062 C 1437.140625 447.289062 1433.125 414.253906 1446.511719 378.992188 C 1461.242188 340.601562 1488.914062 321.851562 1530.421875 320.066406 C 1562.554688 318.726562 1587.101562 331.671875 1608.527344 353.097656 C 1688.417969 433.003906 1768.308594 513.355469 1848.644531 592.8125 C 1859.355469 603.972656 1864.265625 615.582031 1864.265625 631.203125 C 1863.820312 836.546875 1864.265625 1041.890625 1863.375 1247.230469 C 1863.375 1266.871094 1870.515625 1272.230469 1888.367188 1271.785156 C 1912.023438 1270.890625 1936.121094 1273.121094 1959.332031 1270.445312 C 1966.917969 1269.550781 1973.613281 1258.835938 1979.414062 1251.25 C 1981.648438 1248.570312 1979.863281 1242.765625 1979.863281 1238.304688 C 1979.863281 936.984375 1979.863281 635.667969 1980.308594 334.351562 C 1980.308594 313.816406 1974.058594 299.976562 1955.761719 288.371094 C 1927.195312 270.515625 1922.734375 240.609375 1926.75 209.804688 C 1929.875 185.253906 1954.867188 160.257812 1978.96875 155.347656 C 2019.585938 146.863281 2054.84375 165.613281 2070.910156 204.003906 C 2082.515625 232.574219 2066.894531 270.960938 2035.652344 294.175781 C 2028.0625 299.976562 2020.921875 311.585938 2020.921875 320.511719 C 2020.03125 630.3125 2020.03125 939.664062 2020.03125 1249.015625 C 2020.03125 1265.085938 2026.726562 1271.785156 2042.347656 1271.335938 C 2065.109375 1270.890625 2088.316406 1270.890625 2111.527344 1271.785156 C 2128.933594 1272.230469 2136.519531 1267.320312 2136.519531 1247.679688 C 2135.625 1042.78125 2136.074219 838.332031 2135.625 633.882812 C 2135.625 616.472656 2140.535156 603.527344 2152.585938 591.476562 C 2235.15625 509.785156 2317.277344 427.648438 2398.953125 345.0625 C 2432.875 310.691406 2498.480469 309.800781 2534.1875 346.851562 C 2568.109375 382.117188 2571.679688 441.484375 2533.742188 478.984375 C 2473.488281 538.355469 2414.128906 598.617188 2353.875 657.988281 C 2341.378906 670.488281 2336.46875 682.988281 2336.46875 700.394531 C 2336.914062 882.527344 2337.363281 1065.101562 2336.46875 1247.230469 C 2336.46875 1266.871094 2341.824219 1273.570312 2361.464844 1271.785156 C 2381.992188 1269.996094 2402.96875 1271.335938 2423.949219 1271.335938 C 2450.28125 1271.335938 2452.957031 1269.105469 2452.957031 1242.765625 C 2452.957031 1074.03125 2452.957031 904.84375 2452.511719 736.109375 C 2452.511719 718.699219 2457.421875 706.199219 2469.917969 693.699219 C 2533.296875 631.203125 2596.226562 567.816406 2659.601562 504.875 C 2671.207031 493.269531 2676.5625 481.660156 2676.5625 464.699219 C 2675.671875 368.277344 2675.671875 271.410156 2676.5625 174.539062 C 2676.5625 159.363281 2671.207031 149.542969 2659.15625 141.953125 C 2624.34375 120.972656 2618.542969 90.171875 2623.449219 67.851562 C 2631.484375 32.585938 2660.496094 7.140625 2693.078125 3.570312 C 2726.550781 0 2760.023438 26.335938 2772.519531 66.511719 C 2780.554688 92.402344 2764.933594 127.222656 2736.816406 141.507812 C 2721.640625 149.542969 2716.285156 162.042969 2716.285156 177.21875 C 2716.285156 272.300781 2711.820312 367.832031 2718.070312 462.914062 C 2721.195312 508.445312 2697.09375 529.871094 2671.207031 555.316406 C 2615.863281 609.777344 2559.628906 662.898438 2505.175781 718.25 C 2497.144531 726.285156 2493.574219 741.464844 2493.574219 753.070312 C 2493.125 916.898438 2493.574219 1080.726562 2492.679688 1244.105469 C 2492.679688 1263.75 2498.929688 1273.121094 2519.460938 1271.335938 C 2529.722656 1270.890625 2540.4375 1272.230469 2550.703125 1271.335938 C 2605.152344 1266.425781 2638.625 1296.335938 2661.386719 1340.082031 C 2668.527344 1353.921875 2670.3125 1371.328125 2671.207031 1387.398438 C 2672.992188 1411.953125 2672.546875 1436.503906 2671.207031 1461.054688 C 2670.761719 1476.234375 2672.546875 1482.035156 2690.84375 1481.589844 C 2860.890625 1480.695312 3031.386719 1481.589844 3201.878906 1480.695312 C 3211.25 1480.695312 3223.300781 1475.785156 3229.996094 1469.089844 C 3319.707031 1380.257812 3409.414062 1290.53125 3498.230469 1200.804688 C 3514.746094 1184.289062 3531.707031 1175.808594 3555.808594 1177.148438 C 3592.40625 1178.933594 3628.558594 1178.039062 3665.15625 1177.59375 C 3681.222656 1177.148438 3689.703125 1182.949219 3689.703125 1200.359375 C 3689.257812 1217.769531 3680.777344 1222.679688 3664.707031 1222.679688 C 3631.234375 1221.785156 3597.316406 1224.464844 3564.289062 1221.785156 C 3538.402344 1219.554688 3524.117188 1233.394531 3508.496094 1249.015625 C 3471.007812 1287.40625 3432.625 1324.457031 3395.132812 1362.847656 C 3373.261719 1385.167969 3352.734375 1409.273438 3330.417969 1431.59375 C 3300.960938 1460.609375 3271.058594 1489.179688 3240.261719 1516.410156 C 3233.121094 1522.65625 3221.070312 1525.335938 3210.804688 1525.335938 C 3041.203125 1525.78125 2871.601562 1525.78125 2702.003906 1525.78125 C 2671.652344 1525.78125 2671.652344 1525.78125 2671.652344 1555.246094 C 2671.652344 1575.777344 2672.546875 1596.761719 2671.207031 1617.742188 C 2670.3125 1633.363281 2676.117188 1637.828125 2691.292969 1637.828125 C 2777.875 1636.9375 2864.015625 1637.382812 2950.15625 1637.382812 C 3050.128906 1637.382812 3149.660156 1637.382812 3249.1875 1637.828125 C 3265.253906 1637.828125 3276.859375 1633.363281 3287.570312 1622.203125 C 3333.542969 1575.332031 3379.957031 1528.90625 3426.375 1482.929688 C 3450.03125 1459.714844 3474.132812 1437.394531 3499.125 1415.523438 C 3505.375 1409.71875 3515.191406 1405.703125 3523.671875 1405.703125 C 3584.816406 1404.808594 3645.515625 1405.703125 3706.664062 1405.253906 C 3723.621094 1405.253906 3729.871094 1411.058594 3729.871094 1428.914062 C 3730.316406 1447.664062 3722.730469 1450.789062 3706.664062 1450.34375 C 3651.320312 1449.449219 3596.421875 1450.34375 3541.523438 1449.894531 C 3528.136719 1449.449219 3518.316406 1452.574219 3508.496094 1462.839844 C 3474.578125 1498.105469 3439.765625 1532.480469 3404.953125 1566.851562 C 3368.800781 1602.117188 3333.09375 1636.9375 3296.050781 1670.414062 C 3288.015625 1678.003906 3274.179688 1681.574219 3263.023438 1681.574219 C 3073.785156 1682.46875 2884.992188 1682.46875 2696.199219 1681.574219 C 2677.007812 1681.574219 2669.867188 1686.484375 2671.207031 1706.128906 C 2672.992188 1730.679688 2672.101562 1755.230469 2671.652344 1779.78125 C 2671.207031 1792.726562 2674.332031 1798.53125 2688.613281 1798.53125 C 2891.6875 1798.085938 3094.761719 1798.53125 3297.835938 1797.636719 C 3308.546875 1797.636719 3321.9375 1791.835938 3329.523438 1784.246094 C 3379.957031 1737.375 3429.054688 1689.164062 3478.148438 1640.953125 C 3490.199219 1628.453125 3503.140625 1623.542969 3520.101562 1623.988281 C 3620.078125 1624.4375 3719.605469 1623.097656 3819.132812 1624.882812 C 3838.324219 1625.328125 3848.589844 1616.402344 3857.964844 1604.347656 C 3877.15625 1579.351562 3909.289062 1567.296875 3938.300781 1576.671875 C 3964.632812 1585.152344 3989.628906 1614.167969 3989.179688 1646.308594 C 3989.179688 1680.234375 3971.773438 1707.019531 3929.820312 1720.859375 C 3907.058594 1728.445312 3868.230469 1710.144531 3854.394531 1686.933594 C 3844.574219 1670.414062 3832.078125 1663.273438 3811.992188 1663.71875 C 3720.945312 1665.058594 3630.34375 1664.613281 3539.738281 1664.164062 C 3520.996094 1663.71875 3506.710938 1670.414062 3493.769531 1683.359375 C 3450.476562 1727.109375 3405.398438 1769.515625 3363.445312 1814.601562 C 3334.878906 1845.402344 3301.40625 1845.847656 3264.363281 1840.046875 C 3253.203125 1838.261719 3241.601562 1839.597656 3229.996094 1840.046875 C 3224.640625 1840.492188 3218.839844 1842.722656 3213.480469 1842.722656 C 3149.660156 1842.722656 3086.28125 1843.171875 3022.90625 1842.722656 C 2973.363281 1841.832031 2923.824219 1839.152344 2874.28125 1838.707031 C 2815.367188 1837.8125 2756.453125 1838.707031 2697.539062 1838.261719 C 2678.792969 1837.8125 2669.421875 1842.722656 2671.207031 1863.703125 C 2672.992188 1886.472656 2672.992188 1909.683594 2671.207031 1932.449219 C 2670.3125 1950.753906 2677.007812 1954.769531 2693.96875 1954.769531 C 2992.109375 1954.324219 3290.695312 1954.324219 3588.835938 1954.324219 C 3605.792969 1954.324219 3623.199219 1953.429688 3640.160156 1954.769531 C 3661.585938 1956.554688 3676.3125 1951.644531 3688.808594 1931.558594 C 3703.984375 1907.003906 3742.8125 1896.738281 3768.253906 1906.558594 C 3797.710938 1918.164062 3820.472656 1950.304688 3819.582031 1976.195312 C 3818.6875 2007.445312 3806.636719 2028.425781 3781.644531 2043.601562 C 3753.078125 2061.011719 3726.300781 2051.636719 3699.96875 2038.246094 C 3695.949219 2036.460938 3691.933594 2032.441406 3690.59375 2028.871094 C 3681.222656 2000.75 3660.246094 1998.515625 3634.359375 1998.515625 C 3321.9375 1999.410156 3009.515625 1999.410156 2697.09375 1998.515625 C 2676.117188 1998.515625 2669.421875 2004.320312 2671.207031 2024.40625 C 2672.992188 2045.835938 2672.992188 2067.707031 2671.207031 2089.136719 C 2669.867188 2109.222656 2675.222656 2115.917969 2696.648438 2115.472656 C 2901.058594 2114.578125 3105.917969 2115.472656 3310.332031 2114.578125 C 3327.738281 2114.578125 3340.234375 2120.382812 3352.285156 2132.4375 C 3398.703125 2179.753906 3446.011719 2226.179688 3492.429688 2273.496094 C 3506.265625 2287.335938 3521.886719 2294.03125 3541.972656 2294.03125 C 3629.894531 2293.136719 3717.820312 2292.691406 3805.296875 2294.476562 C 3829.847656 2294.925781 3845.019531 2287.335938 3856.625 2267.246094 C 3872.246094 2239.125 3899.023438 2232.875 3928.035156 2236 C 3955.261719 2239.125 3974.898438 2256.980469 3983.378906 2282.425781 C 3997.214844 2323.492188 3987.394531 2353.402344 3950.351562 2373.9375 C 3911.96875 2395.363281 3875.371094 2381.523438 3852.160156 2350.722656 C 3842.789062 2337.777344 3832.96875 2333.761719 3818.6875 2333.761719 C 3718.265625 2333.761719 3617.84375 2333.761719 3517.425781 2334.207031 C 3501.804688 2334.207031 3490.199219 2329.296875 3479.488281 2318.136719 C 3433.960938 2272.15625 3387.992188 2226.625 3342.46875 2180.644531 C 3327.738281 2166.363281 3312.117188 2158.773438 3290.695312 2159.21875 C 3238.476562 2159.664062 3186.257812 2156.09375 3134.039062 2155.648438 C 3077.355469 2154.753906 3021.121094 2155.203125 2964.4375 2155.648438 C 2872.941406 2156.539062 2781 2158.773438 2689.507812 2159.664062 C 2676.5625 2159.664062 2671.207031 2163.238281 2671.652344 2177.074219 C 2672.101562 2200.734375 2672.992188 2224.839844 2671.207031 2248.5 C 2669.867188 2267.695312 2677.007812 2271.710938 2695.308594 2271.710938 C 2880.53125 2271.265625 3065.75 2271.710938 3250.527344 2270.820312 C 3271.949219 2270.820312 3288.015625 2277.960938 3302.300781 2292.691406 C 3368.800781 2359.652344 3436.195312 2426.164062 3502.25 2493.125 C 3515.640625 2506.515625 3529.027344 2513.210938 3548.21875 2512.765625 C 3602.222656 2511.425781 3656.675781 2513.210938 3711.125 2511.871094 C 3730.761719 2511.425781 3729.425781 2522.585938 3729.871094 2535.976562 C 3729.871094 2549.816406 3728.53125 2557.851562 3711.125 2557.40625 C 3649.085938 2556.511719 3587.496094 2557.40625 3525.902344 2556.511719 C 3515.640625 2556.066406 3503.589844 2550.710938 3496 2543.566406 C 3475.023438 2524.816406 3455.832031 2503.835938 3435.746094 2484.195312 C 3401.828125 2451.609375 3367.460938 2419.023438 3333.542969 2386.433594 C 3314.796875 2368.132812 3297.835938 2348.492188 3277.75 2331.527344 C 3268.378906 2323.492188 3254.097656 2316.796875 3242.046875 2316.796875 C 3059.949219 2315.90625 2877.851562 2316.351562 2695.308594 2315.457031 C 2675.222656 2315.457031 2669.867188 2321.707031 2671.207031 2340.902344 C 2672.992188 2362.777344 2672.992188 2385.542969 2671.207031 2407.863281 C 2669.421875 2427.503906 2678.347656 2432.414062 2695.753906 2432.414062 C 2748.867188 2431.519531 2801.53125 2431.96875 2854.195312 2431.96875 C 2914.003906 2431.96875 2973.363281 2432.414062 3032.722656 2431.96875 C 3067.089844 2431.519531 3101.011719 2427.949219 3135.375 2427.949219 C 3165.28125 2427.949219 3195.183594 2429.289062 3224.640625 2432.859375 C 3233.566406 2433.753906 3242.046875 2442.679688 3248.742188 2449.378906 C 3335.773438 2535.976562 3422.804688 2622.578125 3508.945312 2709.625 C 3530.367188 2731.054688 3552.683594 2743.105469 3583.925781 2740.425781 C 3613.382812 2738.195312 3643.285156 2740.875 3673.1875 2739.980469 C 3690.148438 2739.089844 3689.257812 2749.355469 3689.703125 2761.40625 C 3689.703125 2773.015625 3688.363281 2780.601562 3673.1875 2780.601562 C 3627.664062 2779.710938 3582.140625 2781.050781 3537.0625 2779.710938 C 3526.351562 2779.265625 3514.300781 2771.675781 3506.265625 2763.640625 C 3435.746094 2694.449219 3366.121094 2623.917969 3295.605469 2554.28125 C 3271.058594 2529.726562 3245.171875 2505.175781 3218.839844 2482.410156 C 3212.144531 2476.160156 3200.984375 2472.589844 3192.058594 2472.589844 C 3025.136719 2472.144531 2858.660156 2472.589844 2692.183594 2471.695312 C 2674.332031 2471.695312 2671.652344 2478.394531 2671.207031 2493.570312 C 2671.207031 2526.605469 2672.101562 2560.082031 2666.296875 2592.222656 C 2658.710938 2636.863281 2611.402344 2680.609375 2563.199219 2677.484375 C 2549.808594 2677.039062 2535.972656 2679.269531 2523.03125 2677.039062 C 2501.605469 2673.914062 2493.125 2684.179688 2493.125 2707.839844 C 2493.125 2784.621094 2493.125 2860.953125 2493.125 2937.734375 C 2493.125 3024.78125 2493.125 3111.828125 2493.125 3198.875 C 2493.125 3216.285156 2498.480469 3230.125 2510.980469 3243.070312 C 2572.125 3302.886719 2631.484375 3364.488281 2693.523438 3423.414062 C 2715.839844 3445.289062 2722.085938 3468.054688 2721.195312 3497.515625 C 2718.515625 3588.582031 2717.625 3679.644531 2716.730469 3770.710938 C 2716.285156 3790.351562 2723.425781 3805.527344 2742.171875 3818.476562 C 2791.710938 3851.953125 2782.785156 3920.253906 2727.890625 3945.25 C 2702.003906 3956.859375 2655.585938 3947.484375 2641.304688 3926.054688 C 2614.523438 3884.988281 2618.542969 3863.5625 2642.195312 3830.527344 C 2647.550781 3822.492188 2658.265625 3818.476562 2664.957031 3810.886719 C 2669.867188 3805.082031 2675.671875 3796.601562 2675.671875 3789.011719 C 2676.5625 3686.339844 2677.007812 3583.671875 2675.222656 3481 C 2675.222656 3468.945312 2664.511719 3454.660156 2655.140625 3445.289062 C 2593.996094 3382.34375 2531.511719 3320.742188 2469.472656 3258.695312 C 2457.421875 3247.535156 2452.511719 3235.035156 2452.511719 3218.519531 C 2453.40625 3047.546875 2452.957031 2876.578125 2453.40625 2705.164062 C 2453.40625 2684.179688 2446.261719 2676.144531 2424.839844 2677.484375 C 2402.96875 2678.378906 2380.207031 2677.933594 2357.890625 2677.484375 C 2343.609375 2677.484375 2336.914062 2684.179688 2336.914062 2698.464844 C 2336.914062 2886.84375 2336.914062 3075.226562 2337.363281 3263.15625 C 2337.808594 3272.976562 2344.949219 3285.03125 2352.089844 3292.621094 C 2410.113281 3351.542969 2469.027344 3409.128906 2526.601562 3468.054688 C 2553.378906 3495.285156 2567.660156 3527.425781 2556.949219 3566.707031 C 2539.097656 3631.433594 2453.851562 3665.359375 2394.9375 3607.777344 C 2311.476562 3526.53125 2229.800781 3443.949219 2149.015625 3360.917969 C 2140.535156 3352.4375 2136.519531 3335.472656 2136.519531 3322.082031 C 2136.074219 3115.402344 2135.625 2908.273438 2136.519531 2701.589844 C 2136.519531 2681.949219 2128.933594 2677.039062 2111.527344 2677.484375 C 2087.871094 2677.933594 2063.769531 2676.144531 2040.113281 2678.378906 C 2032.972656 2679.269531 2026.277344 2690.429688 2020.476562 2697.574219 C 2018.691406 2699.359375 2020.03125 2703.375 2020.03125 2706.5 C 2020.03125 3014.515625 2020.03125 3322.527344 2020.03125 3630.542969 C 2020.03125 3648.398438 2024.492188 3660.449219 2041.453125 3670.71875 C 2070.910156 3688.574219 2078.5 3718.480469 2073.140625 3750.175781 C 2068.234375 3778.300781 2048.148438 3798.386719 2022.261719 3805.527344 C 1995.929688 3812.226562 1970.042969 3807.316406 1946.386719 3785.886719 C 1910.238281 3753.300781 1917.824219 3693.484375 1957.992188 3670.71875 C 1975.398438 3661.34375 1980.308594 3649.738281 1980.308594 3630.542969 C 1979.863281 3322.527344 1979.863281 3014.515625 1979.863281 2706.949219 C 1979.863281 2682.84375 1975.398438 2677.933594 1951.296875 2677.484375 C 1931.214844 2677.484375 1911.128906 2678.378906 1891.046875 2677.484375 C 1871.851562 2676.59375 1863.375 2681.058594 1863.375 2703.375 C 1864.265625 2910.949219 1864.265625 3118.523438 1863.375 3326.097656 C 1862.925781 3339.046875 1857.125 3355.117188 1848.199219 3364.042969 C 1769.199219 3444.839844 1689.308594 3524.746094 1608.527344 3604.203125 C 1552.289062 3660.003906 1475.96875 3643.488281 1445.621094 3577.421875 C 1432.230469 3548.851562 1433.570312 3506.890625 1467.9375 3472.964844 C 1527.742188 3414.039062 1586.65625 3353.777344 1646.464844 3294.851562 C 1658.066406 3283.246094 1663.421875 3271.640625 1663.421875 3254.675781 C 1662.976562 3071.652344 1662.976562 2888.632812 1663.421875 2705.609375 C 1663.421875 2685.074219 1656.730469 2676.144531 1635.304688 2677.484375 C 1615.667969 2678.378906 1595.136719 2678.378906 1575.5 2677.484375 C 1555.414062 2676.144531 1546.042969 2681.058594 1546.488281 2704.714844 C 1547.382812 2876.578125 1546.933594 3048.441406 1547.382812 3220.304688 C 1547.382812 3235.925781 1542.023438 3247.535156 1531.3125 3258.246094 C 1467.488281 3321.636719 1404.113281 3385.46875 1339.84375 3448.859375 C 1328.238281 3460.464844 1323.328125 3472.515625 1323.328125 3489.035156 C 1324.222656 3587.242188 1323.777344 3685.449219 1323.777344 3783.65625 C 1323.328125 3797.496094 1327.347656 3805.082031 1339.84375 3813.117188 C 1380.90625 3839.457031 1390.277344 3882.753906 1363.5 3920.253906 C 1340.289062 3952.839844 1290.300781 3964 1253.703125 3934.089844 C 1220.675781 3907.753906 1207.734375 3852.402344 1260.398438 3816.242188 C 1273.789062 3806.867188 1279.589844 3797.941406 1279.589844 3781.425781 C 1278.699219 3720.265625 1279.144531 3659.109375 1279.144531 3598.402344 C 1279.144531 3565.8125 1281.824219 3533.226562 1278.25 3501.535156 C 1274.234375 3462.695312 1291.195312 3435.019531 1316.636719 3410.023438 C 1372.425781 3355.5625 1427.769531 3301.546875 1484.003906 3247.535156 C 1496.945312 3235.035156 1502.75 3222.089844 1502.75 3203.785156 C 1501.855469 3036.386719 1501.855469 2868.988281 1502.75 2701.589844 C 1502.75 2681.949219 1495.160156 2677.933594 1477.753906 2677.039062 C 1450.082031 2676.144531 1421.074219 2683.734375 1394.292969 2669.003906 C 1352.785156 2645.792969 1330.917969 2610.527344 1328.6875 2563.65625 C 1327.347656 2540.886719 1327.347656 2517.675781 1328.6875 2494.464844 C 1329.578125 2477.054688 1324.667969 2471.695312 1306.371094 2471.695312 C 1226.925781 2472.589844 1147.480469 2472.144531 1067.589844 2472.144531 C 982.34375 2472.144531 896.652344 2472.589844 810.957031 2471.695312 C 792.660156 2471.695312 779.714844 2477.945312 767.21875 2490.445312 C 676.617188 2581.957031 585.566406 2672.574219 494.519531 2764.085938 C 482.914062 2775.691406 470.863281 2781.050781 454.351562 2780.601562 C 412.84375 2779.710938 370.890625 2779.710938 329.382812 2780.601562 C 312.867188 2781.050781 310.191406 2773.90625 310.191406 2759.175781 C 310.636719 2745.785156 313.316406 2739.089844 328.9375 2739.535156 C 364.195312 2740.875 400.347656 2741.320312 435.605469 2739.535156 C 447.65625 2738.640625 461.492188 2733.285156 469.527344 2725.25 C 565.929688 2631.953125 660.996094 2537.316406 757.398438 2443.574219 C 763.648438 2437.324219 774.804688 2432.414062 783.734375 2432.414062 C 877.460938 2431.519531 971.1875 2432.414062 1064.914062 2431.96875 C 1118.917969 2431.519531 1172.476562 2428.394531 1226.480469 2427.949219 C 1251.472656 2427.503906 1276.019531 2431.074219 1300.566406 2431.96875 C 1319.3125 2432.859375 1331.363281 2427.949219 1328.6875 2404.289062 C 1326.453125 2381.523438 1327.792969 2358.3125 1328.6875 2335.097656 C 1329.132812 2321.707031 1325.5625 2315.457031 1309.941406 2315.457031 C 1122.488281 2316.351562 935.035156 2315.457031 747.582031 2316.796875 C 735.53125 2316.796875 721.695312 2327.511719 711.875 2336.886719 C 644.035156 2403.84375 577.085938 2470.804688 510.140625 2538.65625 C 496.75 2552.046875 482.914062 2557.851562 464.167969 2557.40625 C 408.378906 2556.511719 352.589844 2556.511719 296.800781 2557.40625 C 277.164062 2557.40625 268.238281 2552.046875 270.023438 2530.175781 C 270.914062 2514.996094 276.714844 2511.871094 290.105469 2512.320312 C 345.003906 2512.765625 399.898438 2511.871094 455.242188 2512.765625 C 471.757812 2513.210938 483.808594 2506.960938 494.964844 2495.800781 C 564.144531 2425.71875 633.769531 2356.527344 702.949219 2286.890625 C 714.105469 2275.730469 725.710938 2270.820312 741.332031 2271.265625 C 928.785156 2271.265625 1116.238281 2271.265625 1303.691406 2271.710938 C 1322.882812 2271.710938 1330.023438 2267.246094 1328.6875 2247.160156 C 1326.898438 2224.394531 1326.898438 2201.179688 1328.6875 2178.414062 C 1330.023438 2156.988281 1318.867188 2154.753906 1302.800781 2155.203125 C 1265.308594 2156.988281 1227.816406 2158.773438 1190.773438 2159.664062 C 1155.515625 2160.113281 1120.703125 2159.664062 1085.890625 2159.664062 C 957.796875 2159.664062 829.257812 2160.113281 701.164062 2159.664062 C 685.542969 2159.21875 673.9375 2164.128906 662.78125 2175.289062 C 616.363281 2222.609375 569.054688 2269.03125 523.082031 2316.351562 C 510.140625 2329.296875 496.75 2334.207031 478.898438 2334.207031 C 384.277344 2333.3125 289.660156 2334.207031 195.488281 2333.3125 C 170.9375 2333.3125 151.746094 2339.117188 136.125 2358.757812 C 104.882812 2398.933594 35.707031 2389.113281 15.175781 2335.097656 C 3.570312 2305.191406 16.515625 2260.996094 42.398438 2247.160156 C 82.121094 2226.179688 120.953125 2232.429688 141.035156 2265.015625 C 153.980469 2285.550781 169.601562 2294.925781 195.933594 2294.476562 C 283.410156 2292.246094 371.335938 2293.136719 459.261719 2294.03125 C 478.453125 2294.03125 493.625 2286.890625 506.570312 2273.941406 C 553.433594 2227.070312 600.296875 2180.644531 646.714844 2133.328125 C 659.210938 2120.828125 672.152344 2114.578125 690.453125 2114.578125 C 764.09375 2115.472656 837.289062 2115.027344 913.164062 2115.027344 M 2580.160156 1315.976562 C 2571.679688 1314.636719 2563.644531 1311.960938 2555.164062 1311.960938 C 2186.507812 1311.511719 1817.847656 1311.511719 1448.746094 1311.511719 C 1408.128906 1311.511719 1372.425781 1343.652344 1372.425781 1387.847656 C 1373.316406 1778.890625 1373.316406 2169.933594 1372.425781 2560.976562 C 1372.425781 2597.582031 1402.773438 2637.757812 1448.746094 2637.757812 C 1817.402344 2637.308594 2186.507812 2637.308594 2555.164062 2637.308594 C 2595.78125 2637.308594 2627.023438 2606.507812 2627.023438 2566.332031 C 2627.023438 2173.503906 2627.023438 1781.121094 2627.023438 1388.292969 C 2627.023438 1355.257812 2613.1875 1331.601562 2580.160156 1315.976562 M 2180.703125 3215.394531 C 2180.703125 3249.765625 2180.257812 3283.691406 2181.152344 3318.0625 C 2181.152344 3324.761719 2182.9375 3332.796875 2187.398438 3337.707031 C 2210.609375 3363.597656 2234.710938 3389.042969 2259.257812 3414.039062 C 2300.316406 3456 2341.378906 3497.070312 2383.332031 3538.585938 C 2399.398438 3554.207031 2415.914062 3569.386719 2433.320312 3583.671875 C 2452.957031 3600.632812 2482.859375 3599.292969 2501.605469 3581.882812 C 2519.460938 3565.367188 2529.277344 3532.78125 2510.085938 3513.585938 C 2490.003906 3493.5 2469.917969 3473.855469 2450.726562 3454.214844 C 2401.632812 3403.773438 2352.535156 3353.328125 2303.886719 3302.886719 C 2300.316406 3298.871094 2297.195312 3293.066406 2297.195312 3288.15625 C 2296.746094 3158.253906 2296.746094 3028.800781 2296.746094 2899.34375 C 2296.746094 2833.277344 2297.195312 2766.765625 2296.746094 2700.699219 C 2296.300781 2685.074219 2289.605469 2675.699219 2271.308594 2677.039062 C 2249.4375 2678.824219 2228.015625 2678.378906 2206.589844 2677.484375 C 2188.292969 2676.59375 2180.257812 2681.503906 2180.257812 2702.484375 C 2181.152344 2872.113281 2180.703125 3041.746094 2180.703125 3215.394531 M 2180.703125 1010.195312 C 2180.703125 1090.546875 2181.152344 1170.898438 2180.257812 1251.25 C 2180.257812 1266.425781 2184.273438 1272.675781 2200.34375 1271.785156 C 2220.875 1270.445312 2241.851562 1269.996094 2262.828125 1271.785156 C 2290.5 1274.015625 2296.746094 1266.425781 2296.746094 1236.519531 C 2296.746094 1058.851562 2297.640625 880.738281 2295.855469 703.074219 C 2295.855469 670.488281 2304.78125 646.828125 2328.882812 624.507812 C 2386.011719 571.832031 2441.355469 517.820312 2495.359375 462.019531 C 2510.085938 446.84375 2526.601562 428.09375 2518.566406 401.757812 C 2503.390625 351.3125 2451.617188 350.421875 2423.5 378.992188 C 2345.84375 457.109375 2267.738281 534.335938 2190.523438 612.902344 C 2184.722656 618.707031 2181.152344 629.417969 2181.152344 637.453125 C 2180.703125 760.214844 2180.703125 882.972656 2180.703125 1010.195312 M 1484.449219 3518.941406 C 1474.183594 3544.832031 1479.539062 3567.152344 1500.964844 3584.5625 C 1521.046875 3600.632812 1542.917969 3602.867188 1564.339844 3585.902344 C 1583.980469 3569.386719 1600.9375 3549.746094 1619.238281 3531.441406 C 1680.828125 3469.839844 1741.976562 3408.238281 1804.011719 3347.082031 C 1814.726562 3336.367188 1819.632812 3326.546875 1819.632812 3310.921875 C 1818.742188 3222.535156 1819.1875 3134.148438 1819.1875 3045.316406 C 1819.1875 2931.039062 1818.742188 2816.761719 1820.082031 2702.039062 C 1820.082031 2681.503906 1810.261719 2678.378906 1795.085938 2677.933594 C 1776.789062 2677.039062 1758.042969 2677.484375 1739.296875 2677.484375 C 1707.609375 2677.484375 1702.699219 2681.949219 1703.144531 2714.535156 C 1704.484375 2775.691406 1707.164062 2836.847656 1707.609375 2898.003906 C 1708.054688 3021.210938 1708.054688 3144.863281 1706.714844 3268.066406 C 1706.714844 3281.460938 1700.019531 3297.976562 1690.648438 3307.351562 C 1622.808594 3377.433594 1553.183594 3445.734375 1484.449219 3518.941406 M 1819.1875 1117.332031 C 1819.1875 960.644531 1819.1875 803.511719 1819.632812 646.828125 C 1819.632812 629.417969 1814.726562 616.472656 1802.226562 604.421875 C 1765.628906 570.046875 1729.925781 535.675781 1694.21875 499.964844 C 1654.496094 460.234375 1616.558594 419.167969 1576.390625 379.4375 C 1551.84375 355.332031 1517.925781 354.4375 1496.054688 373.632812 C 1475.523438 391.9375 1472.847656 425.863281 1494.269531 452.199219 C 1508.105469 469.164062 1526.851562 481.660156 1542.472656 496.839844 C 1592.457031 546.835938 1642.445312 596.832031 1692.433594 646.828125 C 1696.449219 650.847656 1702.253906 655.308594 1702.699219 660.21875 C 1705.378906 684.773438 1707.164062 709.769531 1707.164062 734.769531 C 1707.164062 759.765625 1703.144531 784.765625 1703.59375 809.761719 C 1703.59375 844.136719 1707.164062 878.953125 1707.609375 913.328125 C 1708.054688 1025.820312 1708.054688 1137.863281 1707.164062 1250.355469 C 1707.164062 1266.425781 1711.625 1272.675781 1728.585938 1271.785156 C 1752.242188 1270.445312 1775.894531 1270.890625 1799.550781 1271.785156 C 1812.941406 1271.785156 1820.082031 1269.105469 1819.632812 1253.480469 C 1818.742188 1209.734375 1819.1875 1165.539062 1819.1875 1117.332031 M 1966.472656 229 C 1967.8125 248.195312 1982.09375 262.925781 1998.160156 262.480469 C 2016.90625 262.035156 2032.972656 246.410156 2033.421875 228.109375 C 2034.3125 207.128906 2023.15625 194.183594 1998.160156 191.503906 C 1982.09375 189.71875 1967.8125 205.789062 1966.472656 229 M 1337.164062 3876.058594 C 1335.828125 3871.597656 1334.488281 3866.6875 1332.703125 3862.222656 C 1326.453125 3844.8125 1309.492188 3838.117188 1291.195312 3846.152344 C 1270.21875 3855.527344 1262.183594 3871.597656 1269.773438 3889.003906 C 1276.019531 3904.628906 1286.285156 3909.539062 1303.246094 3909.984375 C 1325.5625 3910.878906 1330.023438 3894.808594 1337.164062 3876.058594 M 245.921875 2012.355469 C 250.382812 2012.355469 254.847656 2012.800781 259.308594 2012.355469 C 278.054688 2009.230469 291.890625 1991.375 287.875 1971.734375 C 284.75 1954.324219 274.039062 1944.503906 254.402344 1944.949219 C 237.886719 1945.394531 225.390625 1951.199219 221.820312 1966.375 C 217.355469 1985.570312 222.710938 2002.535156 245.921875 2012.355469 M 1991.019531 3766.691406 C 1995.484375 3766.691406 1999.945312 3767.140625 2004.410156 3766.691406 C 2024.046875 3763.566406 2036.992188 3746.605469 2032.972656 3726.515625 C 2029.402344 3709.554688 2018.246094 3699.285156 1999.054688 3699.285156 C 1982.984375 3699.734375 1970.488281 3705.535156 1966.917969 3720.714844 C 1962.457031 3739.910156 1967.8125 3756.871094 1991.019531 3766.691406 M 2667.191406 95.082031 C 2670.761719 98.652344 2673.886719 103.5625 2678.347656 105.796875 C 2692.628906 113.832031 2706.914062 116.507812 2720.75 104.011719 C 2734.585938 91.511719 2740.386719 77.226562 2726.996094 61.601562 C 2716.730469 49.105469 2704.234375 37.945312 2685.488281 48.210938 C 2666.742188 58.476562 2660.050781 73.210938 2667.191406 95.082031 M 51.773438 2300.28125 C 51.773438 2331.527344 72.304688 2350.722656 95.511719 2340.902344 C 110.242188 2335.097656 122.289062 2323.492188 117.828125 2306.976562 C 114.703125 2295.816406 105.777344 2280.640625 95.511719 2277.066406 C 78.550781 2270.820312 60.699219 2275.730469 51.773438 2300.28125 M 1274.679688 54.90625 C 1272.449219 59.816406 1270.664062 65.175781 1268.433594 70.085938 C 1260.84375 85.707031 1269.324219 98.652344 1280.484375 104.457031 C 1291.640625 109.8125 1307.707031 112.046875 1318.867188 107.582031 C 1330.472656 103.117188 1339.398438 90.171875 1333.59375 73.210938 C 1324.222656 45.53125 1308.601562 39.28125 1274.679688 54.90625 M 3774.054688 1956.554688 C 3770.039062 1953.878906 3766.023438 1950.753906 3761.558594 1948.964844 C 3742.8125 1940.484375 3726.300781 1945.84375 3716.035156 1963.25 C 3704.878906 1981.105469 3715.589844 1995.839844 3726.300781 2005.660156 C 3739.242188 2017.710938 3757.542969 2018.15625 3770.484375 1998.964844 C 3777.179688 1988.695312 3774.503906 1972.179688 3774.054688 1956.554688 M 3883.402344 2298.046875 C 3879.832031 2319.921875 3889.652344 2339.5625 3905.273438 2342.6875 C 3920.894531 2345.8125 3944.101562 2333.761719 3948.121094 2320.816406 C 3953.476562 2302.960938 3945.441406 2287.335938 3926.695312 2278.855469 C 3907.503906 2270.371094 3893.667969 2276.175781 3883.402344 2298.046875 M 76.320312 1615.0625 C 55.34375 1623.988281 45.078125 1640.507812 52.21875 1659.253906 C 58.46875 1674.433594 71.855469 1683.808594 89.710938 1682.023438 C 103.097656 1680.683594 120.058594 1657.917969 118.71875 1644.078125 C 117.382812 1627.5625 101.3125 1615.0625 76.320312 1615.0625 M 3885.636719 1657.46875 C 3894.5625 1673.539062 3904.828125 1688.269531 3927.144531 1678.449219 C 3946.78125 1669.96875 3953.921875 1653.898438 3947.671875 1634.703125 C 3943.210938 1620.417969 3923.574219 1611.492188 3905.273438 1615.0625 C 3890.992188 1618.1875 3880.726562 1636.488281 3885.636719 1657.46875 M 2718.515625 3851.507812 C 2697.539062 3839.007812 2683.703125 3840.347656 2671.652344 3859.097656 C 2662.28125 3873.382812 2664.511719 3889.453125 2676.117188 3902.398438 C 2685.488281 3913.109375 2710.929688 3912.21875 2720.75 3902.84375 C 2735.476562 3889.003906 2735.476562 3871.148438 2718.515625 3851.507812 "
       id="path1" />
    <path
       style="stroke:none;fill-rule:nonzero;fill:#27c2a0;fill-opacity:1"
       d="M 3407.183594 458.003906 C 3383.527344 479.875 3359.875 493.714844 3327.292969 481.660156 C 3314.796875 477.199219 3304.53125 483.894531 3294.710938 493.714844 C 3092.53125 696.824219 2889.902344 899.042969 2687.273438 1101.707031 C 2674.332031 1114.652344 2660.496094 1127.152344 2648.445312 1140.988281 C 2633.714844 1157.503906 2639.964844 1173.128906 2654.691406 1185.183594 C 2669.421875 1196.34375 2683.703125 1194.558594 2697.539062 1181.164062 C 2791.265625 1086.976562 2885.4375 992.785156 2979.613281 899.042969 C 2984.523438 894.132812 2991.214844 888.773438 2997.464844 887.882812 C 3015.316406 885.203125 3024.691406 898.148438 3016.65625 914.667969 C 3013.53125 921.808594 3008.175781 928.058594 3002.820312 933.414062 C 2912.21875 1024.035156 2821.167969 1113.757812 2731.460938 1205.269531 C 2691.292969 1246.339844 2620.328125 1244.105469 2601.582031 1171.789062 C 2595.332031 1146.792969 2606.492188 1124.472656 2624.789062 1106.171875 C 2743.957031 986.984375 2863.570312 867.792969 2982.734375 748.160156 C 3019.335938 711.554688 3056.378906 674.953125 3092.976562 637.902344 C 3129.574219 600.402344 3165.28125 562.460938 3201.878906 524.960938 C 3222.855469 503.089844 3244.722656 481.660156 3266.148438 460.234375 C 3273.734375 452.199219 3277.75 445.058594 3275.074219 431.664062 C 3266.148438 380.328125 3298.730469 343.277344 3344.253906 338.816406 C 3373.261719 335.691406 3397.363281 349.976562 3411.648438 372.742188 C 3428.605469 399.523438 3427.714844 429.433594 3407.183594 458.003906 M 3347.824219 445.503906 C 3367.460938 444.164062 3380.851562 431.664062 3381.296875 413.808594 C 3381.742188 395.953125 3368.800781 379.882812 3353.625 378.542969 C 3333.988281 377.203125 3317.027344 389.703125 3314.351562 407.113281 C 3311.226562 425.414062 3322.828125 440.59375 3347.824219 445.503906 "
       id="path2" />
    <path
       style="stroke:none;fill-rule:nonzero;fill:#27c2a0;fill-opacity:1"
       d="M 3119.308594 3292.621094 C 3159.03125 3331.011719 3198.308594 3368.0625 3236.691406 3405.558594 C 3257.222656 3426.09375 3276.414062 3448.859375 3296.496094 3469.394531 C 3307.65625 3480.550781 3322.382812 3479.660156 3336.664062 3476.535156 C 3363.890625 3470.285156 3398.257812 3483.230469 3412.539062 3505.550781 C 3426.820312 3527.871094 3425.484375 3568.9375 3409.414062 3589.027344 C 3388.882812 3615.363281 3351.839844 3629.203125 3324.613281 3618.042969 C 3297.835938 3606.882812 3270.164062 3583.222656 3274.628906 3541.710938 C 3277.304688 3516.265625 3267.933594 3498.410156 3249.632812 3480.550781 C 3044.773438 3276.550781 2840.359375 3071.652344 2635.949219 2867.203125 C 2626.128906 2856.9375 2616.757812 2845.332031 2609.617188 2833.722656 C 2589.53125 2801.582031 2606.042969 2764.53125 2627.914062 2746.230469 C 2656.480469 2722.125 2681.472656 2715.875 2712.269531 2739.535156 C 2749.757812 2768.996094 2782.339844 2804.707031 2816.707031 2838.1875 C 2839.914062 2860.507812 2862.675781 2883.722656 2884.992188 2906.933594 C 2927.394531 2950.234375 2968.902344 2993.535156 3011.300781 3036.835938 C 3019.78125 3045.761719 3024.691406 3053.351562 3014.425781 3064.957031 C 3004.605469 3077.011719 2994.339844 3077.902344 2983.628906 3067.636719 C 2968.007812 3052.90625 2952.832031 3037.28125 2938.105469 3022.105469 C 2897.488281 2980.140625 2857.320312 2937.734375 2816.261719 2896.21875 C 2778.324219 2857.382812 2739.941406 2818.992188 2701.109375 2781.050781 C 2684.597656 2764.085938 2665.40625 2761.855469 2652.460938 2774.800781 C 2637.285156 2790.425781 2638.179688 2811.40625 2655.140625 2828.367188 C 2706.914062 2880.148438 2758.683594 2931.929688 2810.011719 2983.714844 C 2856.875 3030.140625 2903.292969 3076.5625 2950.15625 3123.4375 C 3005.945312 3179.234375 3062.179688 3235.480469 3119.308594 3292.621094 M 3318.8125 3532.335938 C 3308.992188 3546.621094 3312.566406 3560.902344 3322.828125 3571.171875 C 3334.878906 3582.777344 3350.054688 3581.882812 3366.121094 3575.1875 C 3381.742188 3568.492188 3384.421875 3555.546875 3380.40625 3543.941406 C 3376.835938 3532.78125 3367.90625 3520.28125 3357.640625 3514.480469 C 3342.914062 3505.996094 3329.523438 3516.265625 3318.8125 3532.335938 "
       id="path3" />
    <path
       style="stroke:none;fill-rule:nonzero;fill:#27c2a0;fill-opacity:1"
       d="M 689.113281 482.554688 C 674.832031 482.554688 662.335938 485.234375 649.390625 485.679688 C 612.347656 486.125 578.875 454.429688 578.425781 420.503906 C 577.980469 372.292969 606.097656 339.261719 648.5 338.367188 C 695.363281 337.476562 732.40625 384.347656 721.695312 429.878906 C 718.570312 442.824219 722.140625 453.984375 733.296875 465.144531 C 947.085938 677.628906 1159.976562 891.007812 1372.871094 1103.9375 C 1398.3125 1129.382812 1408.578125 1159.738281 1390.277344 1193.664062 C 1373.316406 1224.910156 1345.644531 1237.410156 1308.15625 1229.820312 C 1290.75 1226.699219 1272.894531 1212.859375 1259.507812 1199.46875 C 1170.6875 1111.082031 1083.210938 1021.355469 995.285156 931.628906 C 993.054688 929.398438 990.378906 926.273438 987.699219 924.039062 C 976.988281 914.667969 976.09375 903.953125 985.46875 893.6875 C 996.179688 882.078125 1006.890625 885.203125 1017.601562 895.472656 C 1061.339844 940.109375 1105.527344 984.304688 1149.710938 1028.496094 C 1192.113281 1070.457031 1234.066406 1112.417969 1276.019531 1154.382812 C 1285.839844 1164.648438 1295.210938 1175.363281 1305.921875 1183.84375 C 1322.4375 1196.789062 1339.398438 1194.109375 1351.449219 1178.933594 C 1364.390625 1162.863281 1360.375 1149.472656 1346.984375 1136.078125 C 1238.53125 1027.605469 1130.074219 919.128906 1022.066406 811.101562 C 951.546875 740.570312 881.476562 670.039062 810.957031 599.957031 C 780.609375 570.046875 748.917969 541.03125 718.125 511.570312 C 708.75 502.640625 699.378906 492.820312 689.113281 482.554688 M 620.828125 427.648438 C 623.503906 430.324219 626.183594 433.003906 628.859375 435.683594 C 642.25 448.628906 660.550781 449.96875 672.601562 438.359375 C 688.667969 423.183594 690.007812 404.433594 676.617188 389.703125 C 663.671875 375.417969 645.375 375.867188 629.308594 387.472656 C 615.023438 398.1875 619.488281 412.023438 620.828125 427.648438 "
       id="path4" />
    <path
       style="stroke:none;fill-rule:nonzero;fill:#27c2a0;fill-opacity:1"
       d="M 921.199219 3310.476562 C 876.566406 3354.667969 833.71875 3397.523438 790.425781 3440.824219 C 770.34375 3461.359375 748.917969 3481 729.726562 3502.425781 C 724.371094 3508.675781 719.464844 3520.726562 722.140625 3527.425781 C 736.871094 3568.046875 709.199219 3604.652344 675.722656 3618.042969 C 641.359375 3631.433594 599.402344 3612.6875 583.335938 3576.972656 C 570.839844 3550.636719 573.070312 3523.40625 592.261719 3501.535156 C 611.007812 3480.550781 633.769531 3466.269531 665.457031 3475.640625 C 678.847656 3479.660156 692.683594 3477.875 704.734375 3464.929688 C 746.6875 3420.734375 790.875 3378.328125 833.71875 3335.027344 C 872.996094 3295.746094 912.273438 3256.460938 951.546875 3217.179688 C 1082.765625 3087.277344 1213.980469 2957.824219 1345.199219 2827.921875 C 1367.515625 2806.046875 1363.5 2781.050781 1337.613281 2769.441406 C 1320.652344 2761.855469 1309.046875 2770.335938 1297.890625 2781.496094 C 1205.054688 2874.792969 1111.777344 2967.644531 1018.941406 3060.492188 C 1003.320312 3076.117188 990.824219 3075.226562 984.128906 3058.261719 C 981.898438 3052.90625 982.789062 3043.53125 986.359375 3040.40625 C 1084.550781 2941.304688 1182.292969 2842.652344 1281.375 2745.335938 C 1308.601562 2718.554688 1345.199219 2722.125 1372.871094 2745.785156 C 1407.238281 2775.691406 1405.898438 2818.546875 1382.691406 2843.992188 C 1368.855469 2859.167969 1355.910156 2874.792969 1341.628906 2889.523438 C 1201.929688 3029.691406 1061.789062 3169.414062 921.199219 3310.476562 M 643.144531 3579.207031 C 667.242188 3579.207031 683.757812 3568.9375 685.542969 3552.421875 C 687.773438 3532.335938 677.507812 3519.835938 660.550781 3512.691406 C 649.390625 3507.78125 623.058594 3521.175781 618.59375 3532.78125 C 612.347656 3548.40625 621.273438 3568.492188 643.144531 3579.207031 "
       id="path5" />
    <path
       style="stroke:none;fill-rule:nonzero;fill:#27c2a0;fill-opacity:1"
       d="M 767.21875 873.152344 C 630.644531 736.554688 495.410156 601.742188 360.625 466.039062 C 348.128906 453.09375 334.738281 451.308594 321.347656 455.769531 C 281.179688 469.164062 242.351562 445.058594 231.191406 403.097656 C 222.710938 370.957031 240.117188 324.976562 287.875 315.601562 C 333.84375 307.121094 378.476562 341.046875 377.136719 387.917969 C 376.246094 412.023438 383.386719 428.09375 400.792969 445.503906 C 641.359375 684.324219 881.03125 924.488281 1120.703125 1164.648438 C 1131.414062 1175.363281 1140.339844 1182.058594 1158.640625 1178.488281 C 1196.574219 1170.898438 1237.191406 1210.628906 1238.976562 1247.679688 C 1241.207031 1291.871094 1209.964844 1323.117188 1166.671875 1325.351562 C 1111.777344 1328.921875 1077.410156 1277.140625 1096.15625 1227.589844 C 1101.957031 1212.859375 1096.601562 1202.144531 1085.441406 1190.984375 C 979.664062 1085.636719 873.886719 979.839844 767.21875 873.152344 M 1156.40625 1284.730469 C 1159.976562 1284.730469 1164.886719 1286.066406 1167.566406 1284.730469 C 1178.277344 1277.585938 1192.558594 1271.785156 1197.914062 1261.515625 C 1206.394531 1245.890625 1193.453125 1232.054688 1180.507812 1225.359375 C 1171.136719 1220.894531 1155.515625 1219.554688 1146.589844 1224.464844 C 1122.488281 1237.855469 1126.058594 1269.105469 1156.40625 1284.730469 M 337.414062 376.3125 C 332.058594 370.957031 327.597656 365.597656 321.792969 360.6875 C 308.851562 349.976562 281.179688 355.332031 275.824219 371.847656 C 272.253906 381.667969 273.144531 395.0625 277.164062 404.433594 C 284.304688 422.289062 303.496094 422.738281 316.886719 417.828125 C 329.382812 412.46875 341.878906 399.523438 337.414062 376.3125 "
       id="path6" />
    <path
       style="stroke:none;fill-rule:nonzero;fill:#27c2a0;fill-opacity:1"
       d="M 3471.898438 3386.363281 C 3343.808594 3258.246094 3217.050781 3131.472656 3090.296875 3004.695312 C 3030.046875 2944.429688 2969.792969 2884.613281 2909.988281 2823.902344 C 2903.738281 2818.101562 2898.828125 2810.957031 2893.917969 2803.816406 C 2879.191406 2782.835938 2859.105469 2777.925781 2834.558594 2780.15625 C 2796.621094 2783.726562 2758.238281 2741.320312 2760.917969 2702.039062 C 2763.59375 2660.523438 2794.835938 2632.847656 2839.46875 2632.847656 C 2874.28125 2632.847656 2910.433594 2666.773438 2911.773438 2701.144531 C 2911.773438 2707.394531 2910.433594 2713.644531 2908.203125 2719 C 2894.8125 2749.800781 2914.003906 2766.320312 2933.195312 2785.511719 C 3137.160156 2988.625 3340.234375 3192.628906 3543.757812 3396.183594 C 3575.445312 3427.429688 3607.578125 3457.785156 3637.484375 3490.375 C 3651.320312 3505.105469 3663.371094 3508.675781 3682.5625 3503.765625 C 3721.390625 3493.945312 3757.097656 3515.371094 3769.59375 3552.867188 C 3780.304688 3584.5625 3760.21875 3625.183594 3726.300781 3641.703125 C 3698.628906 3655.09375 3653.105469 3641.703125 3635.699219 3616.703125 C 3622.753906 3598.402344 3620.523438 3578.3125 3622.308594 3557.332031 C 3624.09375 3543.046875 3619.183594 3532.78125 3608.917969 3522.960938 C 3562.949219 3478.320312 3517.871094 3432.34375 3471.898438 3386.363281 M 3729.425781 3585.902344 C 3729.425781 3580.992188 3728.976562 3575.636719 3729.425781 3570.277344 C 3731.65625 3552.867188 3717.820312 3544.386719 3706.214844 3541.710938 C 3695.503906 3539.476562 3679.4375 3543.496094 3672.296875 3551.082031 C 3666.046875 3558.226562 3663.371094 3575.1875 3666.941406 3584.5625 C 3677.207031 3612.6875 3701.753906 3613.578125 3729.425781 3585.902344 M 2830.097656 2673.023438 C 2810.011719 2675.253906 2801.976562 2689.539062 2801.53125 2706.949219 C 2801.085938 2722.570312 2824.738281 2743.105469 2838.128906 2739.535156 C 2854.644531 2735.515625 2868.925781 2728.375 2868.03125 2706.949219 C 2867.585938 2682.84375 2860 2674.808594 2830.097656 2673.023438 "
       id="path7" />
    <path
       style="stroke:none;fill-rule:nonzero;fill:#27c2a0;fill-opacity:1"
       d="M 3349.164062 694.59375 C 3432.625 610.671875 3514.300781 527.195312 3598.207031 446.84375 C 3616.953125 428.539062 3623.648438 412.023438 3622.753906 387.472656 C 3620.96875 348.1875 3649.980469 320.511719 3694.613281 312.03125 C 3718.714844 307.121094 3761.558594 335.242188 3768.253906 362.472656 C 3773.609375 383.902344 3774.054688 407.113281 3758.882812 427.203125 C 3738.351562 454.429688 3709.339844 467.824219 3678.992188 457.554688 C 3651.765625 448.628906 3639.269531 460.679688 3624.988281 476.75 C 3616.507812 485.679688 3609.367188 495.945312 3600.886719 504.875 C 3416.109375 690.128906 3230.886719 874.9375 3045.667969 1060.191406 C 3009.070312 1096.347656 2971.132812 1131.613281 2934.085938 1167.328125 C 2925.160156 1176.253906 2914.449219 1183.84375 2909.09375 1194.558594 C 2904.628906 1203.484375 2905.078125 1216.429688 2906.417969 1227.144531 C 2913.109375 1272.675781 2907.753906 1305.710938 2858.660156 1322.671875 C 2823.847656 1334.726562 2785.019531 1319.546875 2771.628906 1293.65625 C 2752.4375 1255.265625 2759.578125 1220.894531 2790.375 1194.558594 C 2805.101562 1181.164062 2820.722656 1175.808594 2839.023438 1178.039062 C 2858.660156 1180.273438 2871.601562 1172.683594 2885.4375 1158.84375 C 2947.476562 1095.011719 3010.855469 1032.070312 3074.230469 969.574219 C 3109.492188 934.753906 3146.089844 901.722656 3180.902344 866.902344 C 3237.136719 810.210938 3292.035156 752.625 3349.164062 694.59375 M 2868.03125 1237.855469 C 2863.570312 1233.394531 2859.105469 1227.589844 2853.75 1224.019531 C 2839.914062 1214.199219 2824.738281 1214.644531 2814.476562 1227.144531 C 2807.332031 1236.070312 2800.191406 1250.355469 2802.425781 1260.175781 C 2805.546875 1272.230469 2814.027344 1285.621094 2832.773438 1285.175781 C 2863.570312 1284.730469 2868.03125 1279.820312 2868.03125 1237.855469 M 3713.804688 356.222656 C 3699.074219 347.296875 3683.453125 350.867188 3673.636719 362.027344 C 3666.941406 370.507812 3663.371094 385.238281 3665.601562 395.953125 C 3668.277344 408.898438 3677.652344 420.058594 3695.058594 419.167969 C 3709.339844 418.273438 3721.835938 416.933594 3727.191406 400.863281 C 3732.546875 384.347656 3731.65625 369.617188 3713.804688 356.222656 "
       id="path8" />
    <path
       style="stroke:none;fill-rule:nonzero;fill:#27c2a0;fill-opacity:1"
       d="M 976.988281 2875.238281 C 1013.585938 2838.1875 1048.84375 2802.03125 1085.441406 2767.210938 C 1096.601562 2756.050781 1098.386719 2745.335938 1094.816406 2731.945312 C 1084.550781 2692.214844 1095.261719 2653.828125 1139.894531 2635.972656 C 1170.242188 2623.917969 1212.644531 2638.648438 1230.050781 2668.109375 C 1248.347656 2699.804688 1238.53125 2737.75 1214.429688 2759.175781 C 1196.128906 2775.246094 1176.492188 2781.941406 1153.730469 2780.15625 C 1140.339844 2779.265625 1130.519531 2783.28125 1120.703125 2793.101562 C 1077.855469 2835.957031 1033.671875 2877.023438 990.378906 2919.433594 C 927.894531 2981.480469 865.410156 3044.421875 802.925781 3106.917969 C 771.683594 3138.167969 739.992188 3169.859375 708.75 3201.109375 C 604.3125 3305.566406 499.875 3410.46875 394.992188 3514.925781 C 382.046875 3527.871094 373.566406 3540.371094 376.691406 3561.796875 C 382.046875 3601.078125 360.625 3634.113281 316.4375 3645.71875 C 287.875 3652.863281 249.9375 3638.578125 234.761719 3598.847656 C 223.605469 3571.171875 228.515625 3544.386719 248.597656 3523.851562 C 266.453125 3505.996094 287.875 3493.050781 316.886719 3501.980469 C 332.507812 3506.890625 348.128906 3504.65625 362.855469 3490.375 C 566.375 3285.03125 771.234375 3080.582031 976.988281 2875.238281 M 1189.882812 2684.179688 C 1175.597656 2670.789062 1151.050781 2668.109375 1139.894531 2681.058594 C 1129.183594 2694.003906 1126.503906 2710.074219 1136.769531 2724.355469 C 1148.820312 2741.765625 1169.796875 2744.890625 1184.972656 2733.730469 C 1200.59375 2722.125 1203.269531 2703.824219 1189.882812 2684.179688 M 303.941406 3539.03125 C 283.859375 3540.371094 272.699219 3551.976562 270.914062 3570.726562 C 268.683594 3589.027344 280.734375 3603.3125 296.355469 3604.652344 C 307.957031 3605.988281 324.472656 3597.953125 332.058594 3588.582031 C 346.789062 3570.726562 335.628906 3550.636719 303.941406 3539.03125 "
       id="path9" />
    <path
       style="stroke:none;fill-rule:nonzero;fill:#27c2a0;fill-opacity:1"
       d="M 604.3125 942.34375 C 614.578125 951.71875 622.613281 954.394531 636.894531 950.824219 C 691.34375 936.539062 722.585938 969.125 734.191406 1011.535156 C 743.117188 1042.78125 704.289062 1089.207031 670.8125 1093.226562 C 611.007812 1099.921875 567.714844 1048.140625 586.015625 996.355469 C 588.691406 989.214844 577.980469 974.484375 569.945312 966.449219 C 502.554688 898.148438 434.710938 830.742188 366.871094 762.890625 C 356.605469 752.625 347.234375 746.375 329.828125 753.070312 C 288.320312 768.25 246.367188 749.5 231.636719 702.628906 C 221.820312 670.488281 238.78125 627.1875 284.304688 612.902344 C 320.902344 601.296875 379.371094 630.757812 376.691406 679.863281 C 375.800781 706.644531 385.171875 724.5 403.917969 742.804688 C 471.3125 807.976562 536.917969 874.9375 604.3125 942.34375 M 281.625 708.878906 C 284.75 710.664062 287.875 712.003906 291 713.789062 C 310.636719 725.839844 325.363281 714.234375 334.292969 699.949219 C 342.769531 685.664062 340.09375 668.703125 324.472656 657.988281 C 309.742188 648.167969 295.015625 647.722656 282.074219 659.773438 C 266.453125 674.058594 266.453125 690.128906 281.625 708.878906 M 672.152344 1050.371094 C 675.277344 1047.246094 678.402344 1044.121094 681.527344 1040.996094 C 693.128906 1028.945312 693.578125 1009.75 682.863281 998.589844 C 667.691406 982.964844 649.390625 981.625 634.214844 994.570312 C 622.613281 1004.839844 621.71875 1027.15625 630.644531 1040.550781 C 640.910156 1055.726562 655.640625 1052.601562 672.152344 1050.371094 "
       id="path10" />
    <path
       style="stroke:none;fill-rule:nonzero;fill:#27c2a0;fill-opacity:1"
       d="M 3496.445312 3058.261719 C 3543.757812 3105.578125 3590.171875 3151.558594 3635.699219 3197.984375 C 3648.195312 3210.929688 3660.691406 3216.734375 3676.757812 3208.699219 C 3708 3193.519531 3748.167969 3216.734375 3762.898438 3244.410156 C 3775.839844 3267.621094 3769.59375 3311.367188 3742.8125 3333.242188 C 3703.09375 3366.273438 3640.609375 3347.527344 3626.324219 3303.78125 C 3621.863281 3289.496094 3624.539062 3273.425781 3621.863281 3258.246094 C 3620.523438 3249.320312 3617.398438 3238.160156 3611.152344 3231.910156 C 3554.023438 3173.433594 3496.445312 3115.847656 3438.425781 3058.261719 C 3422.804688 3043.085938 3406.738281 3027.460938 3389.332031 3014.515625 C 3382.191406 3009.15625 3369.246094 3006.035156 3361.214844 3008.710938 C 3331.308594 3018.980469 3305.421875 3010.496094 3285.785156 2989.515625 C 3263.46875 2965.410156 3262.578125 2934.609375 3276.414062 2905.59375 C 3290.695312 2876.578125 3315.6875 2861.402344 3348.269531 2865.417969 C 3396.917969 2871.222656 3423.699219 2910.503906 3415.664062 2954.699219 C 3412.984375 2970.320312 3416.554688 2978.355469 3425.929688 2987.730469 C 3448.691406 3010.945312 3471.898438 3033.710938 3496.445312 3058.261719 M 3376.835938 2938.628906 C 3374.601562 2931.929688 3374.15625 2924.789062 3370.140625 2918.984375 C 3360.765625 2904.703125 3336.664062 2900.683594 3325.0625 2910.503906 C 3305.871094 2926.128906 3303.636719 2945.324219 3318.367188 2960.949219 C 3339.34375 2982.375 3363 2975.230469 3376.835938 2938.628906 M 3691.488281 3244.410156 C 3665.15625 3250.660156 3652.210938 3278.78125 3667.832031 3296.191406 C 3677.207031 3306.90625 3687.023438 3316.277344 3704.429688 3307.796875 C 3720.945312 3300.207031 3731.65625 3290.386719 3728.976562 3271.640625 C 3726.746094 3253.335938 3712.910156 3246.640625 3691.488281 3244.410156 "
       id="path11" />
    <path
       style="stroke:none;fill-rule:nonzero;fill:#27c2a0;fill-opacity:1"
       d="M 3391.5625 946.808594 C 3459.847656 878.0625 3525.902344 809.316406 3595.082031 744.589844 C 3616.058594 724.949219 3623.199219 707.09375 3623.199219 679.863281 C 3622.753906 646.828125 3656.230469 615.132812 3690.148438 610.671875 C 3722.730469 606.652344 3762.898438 635.667969 3770.039062 669.59375 C 3781.199219 723.164062 3725.855469 774.945312 3675.867188 753.515625 C 3658.015625 745.929688 3644.179688 750.839844 3630.789062 764.675781 C 3596.867188 800.390625 3561.609375 834.316406 3526.796875 869.132812 C 3496 899.933594 3465.203125 931.183594 3433.960938 961.984375 C 3420.125 975.824219 3410.308594 987.429688 3415.664062 1011.535156 C 3424.589844 1049.03125 3397.8125 1081.617188 3359.875 1092.332031 C 3321.9375 1103.046875 3282.660156 1078.941406 3269.273438 1042.78125 C 3259.453125 1015.105469 3268.824219 992.339844 3285.785156 972.699219 C 3305.871094 948.59375 3332.648438 941.449219 3363.890625 949.484375 C 3371.925781 951.71875 3381.296875 948.59375 3391.5625 946.808594 M 3664.707031 673.164062 C 3661.136719 695.933594 3670.511719 713.339844 3688.808594 717.804688 C 3708 722.714844 3720.050781 711.109375 3728.976562 697.71875 C 3737.011719 684.773438 3724.960938 661.113281 3708 653.972656 C 3688.808594 645.9375 3675.421875 652.183594 3664.707031 673.164062 M 3325.507812 990.105469 C 3310.332031 1005.730469 3304.53125 1028.050781 3313.011719 1040.550781 C 3321.492188 1051.710938 3347.824219 1058.851562 3358.535156 1050.371094 C 3370.585938 1040.996094 3381.742188 1029.390625 3373.261719 1011.085938 C 3363 990.105469 3349.164062 982.964844 3325.507812 990.105469 "
       id="path12" />
    <path
       style="stroke:none;fill-rule:nonzero;fill:#27c2a0;fill-opacity:1"
       d="M 587.351562 2914.074219 C 602.972656 2884.167969 624.84375 2867.203125 658.316406 2864.527344 C 687.328125 2861.847656 719.015625 2887.738281 730.175781 2918.539062 C 739.546875 2944.429688 727.496094 2979.695312 702.949219 2997.105469 C 682.417969 3011.390625 660.101562 3018.980469 635.109375 3007.820312 C 623.058594 3002.460938 613.238281 3006.035156 604.3125 3015.40625 C 531.117188 3088.617188 457.921875 3161.378906 385.617188 3235.035156 C 379.371094 3241.730469 377.136719 3255.121094 378.03125 3264.941406 C 380.261719 3292.621094 370.890625 3313.601562 350.804688 3331.902344 C 324.917969 3355.5625 290.550781 3359.132812 254.847656 3333.6875 C 232.53125 3317.617188 225.835938 3275.210938 236.996094 3248.425781 C 253.953125 3208.699219 292.335938 3197.539062 326.257812 3207.359375 C 335.183594 3210.035156 350.359375 3206.019531 357.054688 3199.324219 C 426.679688 3132.808594 494.519531 3064.957031 564.144531 2998.445312 C 579.320312 2984.160156 584.675781 2969.875 583.335938 2950.234375 C 582.445312 2939.074219 586.015625 2927.46875 587.351562 2914.074219 M 627.523438 2952.019531 C 633.324219 2969.429688 648.5 2976.125 662.78125 2971.214844 C 673.492188 2967.644531 684.203125 2955.589844 689.113281 2944.878906 C 696.699219 2928.808594 685.097656 2914.96875 672.152344 2908.71875 C 662.78125 2904.703125 647.605469 2906.039062 638.679688 2910.949219 C 625.289062 2918.984375 618.59375 2933.269531 627.523438 2952.019531 M 270.46875 3273.425781 C 270.46875 3276.996094 269.574219 3281.460938 270.46875 3284.585938 C 276.269531 3299.316406 285.195312 3310.476562 302.15625 3311.367188 C 318.222656 3312.261719 328.9375 3303.78125 335.183594 3289.046875 C 340.984375 3274.765625 337.863281 3263.15625 325.8125 3252.445312 C 306.621094 3235.925781 287.875 3240.835938 270.46875 3273.425781 "
       id="path13" />
    <path
       style="stroke:none;fill-rule:nonzero;fill:#27c2a0;fill-opacity:1"
       d="M 2211.945312 2561.421875 C 1988.34375 2561.421875 1766.523438 2561.421875 1545.148438 2561.421875 C 1490.699219 2561.867188 1448.746094 2519.90625 1448.746094 2464.554688 C 1448.746094 2140.023438 1448.296875 1815.941406 1449.191406 1491.855469 C 1449.191406 1440.519531 1467.042969 1409.273438 1516.140625 1394.097656 C 1521.941406 1392.308594 1528.636719 1391.863281 1535.332031 1391.863281 C 1845.074219 1391.863281 2155.265625 1392.308594 2465.453125 1391.863281 C 2508.300781 1391.863281 2547.132812 1430.699219 2547.132812 1474 C 2546.683594 1806.566406 2547.132812 2139.132812 2546.238281 2471.25 C 2546.238281 2522.140625 2507.410156 2560.53125 2457.421875 2560.976562 C 2376.191406 2562.316406 2295.40625 2561.421875 2211.945312 2561.421875 M 1495.609375 2494.464844 C 1504.089844 2515.445312 1522.832031 2520.800781 1542.023438 2520.800781 C 1847.304688 2521.246094 2152.140625 2521.691406 2456.976562 2520.800781 C 2469.027344 2520.800781 2482.414062 2512.765625 2492.679688 2505.175781 C 2514.101562 2489.550781 2506.515625 2465.449219 2506.515625 2443.574219 C 2506.515625 2121.277344 2506.515625 1799.425781 2506.515625 1477.125 C 2506.515625 1448.554688 2490.003906 1432.039062 2461.4375 1432.039062 C 2153.480469 1432.039062 1845.519531 1432.039062 1537.5625 1432.039062 C 1509.445312 1432.039062 1488.914062 1453.019531 1488.914062 1480.695312 C 1488.914062 1809.691406 1488.914062 2138.683594 1488.914062 2467.234375 C 1489.359375 2475.714844 1492.039062 2484.195312 1495.609375 2494.464844 "
       id="path14" />
    <path
       style="stroke:none;fill-rule:nonzero;fill:#27c2a0;fill-opacity:1"
       d="M 1818.296875 1841.832031 C 1833.023438 1802.996094 1845.96875 1765.050781 1861.140625 1728.445312 C 1863.375 1722.644531 1876.316406 1719.074219 1884.796875 1718.179688 C 1902.648438 1716.839844 1920.949219 1719.074219 1938.355469 1717.285156 C 1959.777344 1715.5 1968.703125 1728.445312 1975.398438 1744.070312 C 2005.300781 1817.28125 2035.207031 1890.488281 2064.664062 1963.699219 C 2098.582031 2047.175781 2132.054688 2130.648438 2165.976562 2214.125 C 2169.546875 2223.5 2168.207031 2227.070312 2157.050781 2227.070312 C 2132.503906 2226.179688 2107.953125 2225.285156 2083.40625 2227.070312 C 2064.214844 2228.410156 2057.074219 2218.144531 2051.273438 2202.964844 C 2040.5625 2174.398438 2028.957031 2146.273438 2016.460938 2119.042969 C 2013.78125 2113.242188 2004.410156 2106.992188 1998.160156 2106.542969 C 1943.265625 2105.652344 1887.921875 2106.542969 1833.023438 2106.097656 C 1820.082031 2106.097656 1813.832031 2110.117188 1809.816406 2123.507812 C 1800.890625 2152.078125 1790.625 2181.09375 1778.125 2208.324219 C 1774.554688 2216.804688 1761.613281 2224.839844 1752.242188 2225.734375 C 1726.355469 2228.410156 1700.019531 2226.625 1674.136719 2226.625 C 1666.546875 2226.625 1660.300781 2230.195312 1666.546875 2215.464844 C 1705.378906 2120.828125 1741.527344 2024.855469 1779.464844 1929.773438 C 1791.070312 1900.308594 1804.460938 1871.738281 1818.296875 1841.832031 M 1888.367188 1905.21875 C 1875.871094 1941.378906 1864.265625 1978.429688 1849.984375 2014.140625 C 1845.519531 2024.855469 1844.628906 2026.191406 1856.230469 2025.746094 C 1895.507812 2025.746094 1934.785156 2025.746094 1974.058594 2025.746094 C 1984.324219 2025.746094 1985.21875 2025.746094 1980.753906 2014.140625 C 1959.777344 1958.339844 1941.480469 1901.203125 1921.839844 1844.957031 C 1920.054688 1840.9375 1916.039062 1837.367188 1913.359375 1833.796875 C 1910.238281 1837.8125 1905.773438 1841.832031 1904.433594 1846.296875 C 1899.078125 1865.042969 1895.0625 1884.238281 1888.367188 1905.21875 "
       id="path15" />
    <path
       style="stroke:none;fill-rule:nonzero;fill:#27c2a0;fill-opacity:1"
       d="M 2213.285156 1719.074219 C 2240.066406 1717.734375 2266.398438 1718.179688 2292.285156 1717.734375 C 2305.671875 1717.285156 2310.582031 1721.304688 2310.582031 1735.144531 C 2310.136719 1893.167969 2310.136719 2051.636719 2310.136719 2209.664062 C 2310.582031 2221.714844 2307.011719 2227.519531 2294.070312 2227.070312 C 2271.753906 2226.179688 2249.4375 2228.410156 2227.121094 2225.734375 C 2219.980469 2224.839844 2208.375 2213.234375 2208.375 2206.539062 C 2207.484375 2048.066406 2207.484375 1890.042969 2207.484375 1731.570312 C 2207.929688 1727.554688 2210.609375 1723.984375 2213.285156 1719.074219 "
       id="path16" />
  </g>
</svg>
