<?xml version="1.0" encoding="UTF-8" standalone="no"?>
<svg
   id="_6-machine_learning"
   viewBox="0 0 512 512"
   version="1.1"
   sodipodi:docname="ml.svg"
   inkscape:version="1.4 (e7c3feb1, 2024-10-09)"
   xmlns:inkscape="http://www.inkscape.org/namespaces/inkscape"
   xmlns:sodipodi="http://sodipodi.sourceforge.net/DTD/sodipodi-0.dtd"
   xmlns="http://www.w3.org/2000/svg"
   xmlns:svg="http://www.w3.org/2000/svg">
  <defs
     id="defs9" />
  <sodipodi:namedview
     id="namedview9"
     pagecolor="#ffffff"
     bordercolor="#000000"
     borderopacity="0.25"
     inkscape:showpageshadow="2"
     inkscape:pageopacity="0.0"
     inkscape:pagecheckerboard="0"
     inkscape:deskcolor="#d1d1d1"
     inkscape:zoom="0.38714251"
     inkscape:cx="-601.84555"
     inkscape:cy="288.00764"
     inkscape:window-width="1552"
     inkscape:window-height="786"
     inkscape:window-x="0"
     inkscape:window-y="38"
     inkscape:window-maximized="0"
     inkscape:current-layer="_6-machine_learning" />
  <path
     d="m182.9843292,248c-12.8476562,0-23.8735352,7.6523438-28.9619141,18.5986328-4.4067383-3.6542969-9.1191406-7.0043945-14.3505859-9.7080078-3.9296875-2.0390625-8.7578125-.4921875-10.78125,3.4335938-2.0234375,3.921875-.4921875,8.75,3.4375,10.7773438,21.375,11.0507812,34.65625,32.8515625,34.65625,56.8984375,0,4.4179688,3.578125,8,8,8s8-3.5820312,8-8c0-17.675293-5.8652344-34.2924805-16.027832-47.862793.0009766-.0483398.027832-.0883789.027832-.137207,0-8.8242188,7.1796875-16,16-16,4.421875,0,8-3.5820312,8-8s-3.578125-8-8-8Z"
     id="path1"
     style="fill:#27c2a0;fill-opacity:1" />
  <path
     d="m479.9999542,224c-14.8696289,0-27.2866211,10.237793-30.8637695,24h-185.1362305v-64h88c3.03125,0,5.796875-1.7109375,7.15625-4.421875l13.7890625-27.578125h28.190918c3.5771484,13.762207,15.9941406,24,30.8637695,24,17.6484375,0,32-14.3554688,32-32s-14.3515625-32-32-32c-14.8696289,0-27.2866211,10.237793-30.8637695,24h-33.1362305c-3.03125,0-5.796875,1.7109375-7.15625,4.421875l-13.7890625,27.578125h-83.0546875v-56h72c2.8671875,0,5.5234375-1.5390625,6.9453125-4.03125l27.0488281-47.3354492c4.2480469,2.0878906,8.9604492,3.3666992,14.0058594,3.3666992,17.6484375,0,32-14.3554688,32-32S401.6483917,0,383.9999542,0s-32,14.3554688-32,32c0,6.6972656,2.0834961,12.9072266,5.6142578,18.0517578l-26.2548828,45.9482422h-67.359375V8c0-4.4179688-3.578125-8-8-8-23.7890625,0-45.203125,12.9765625-56.296875,33.5859375-5.2032269-1.0546875-10.4609375-1.5859375-15.703125-1.5859375-35.4609375,0-65.9921875,22.7695312-76.3203125,56.1171875-42.1171875,2.25-75.6796875,37.21875-75.6796875,79.8828125,0,7.3671875,1.0390625,14.6875,3.09375,21.84375C13.2968292,204.6601562-.0000458,229.4414062-.0000458,256s13.296875,51.3398438,35.09375,66.15625c-2.0546875,7.15625-3.09375,14.4765625-3.09375,21.84375,0,42.6640625,33.5625,77.6328125,75.6796875,79.8828125,10.328125,33.3476562,40.859375,56.1171875,76.3203125,56.1171875,5.2421875,0,10.4998981-.53125,15.703125-1.5859375,11.09375,20.609375,32.5078125,33.5859375,56.296875,33.5859375,4.421875,0,8-3.5820312,8-8v-88h67.359375l26.2548828,45.9482422c-3.5307617,5.1445312-5.6142578,11.3544922-5.6142578,18.0517578,0,17.6445312,14.3515625,32,32,32s32-14.3554688,32-32-14.3515625-32-32-32c-5.0454102,0-9.7578125,1.2788086-14.0058594,3.3666992l-27.0488281-47.3354492c-1.421875-2.4921875-4.078125-4.03125-6.9453125-4.03125h-72v-56h83.0546875l13.7890625,27.578125c1.359375,2.7109375,4.125,4.421875,7.15625,4.421875h33.1362305c3.5771484,13.762207,15.9941406,24,30.8637695,24,17.6484375,0,32-14.3554688,32-32s-14.3515625-32-32-32c-14.8696289,0-27.2866211,10.237793-30.8637695,24h-28.190918l-13.7890625-27.578125c-1.359375-2.7109375-4.125-4.421875-7.15625-4.421875h-88v-64h185.1362305c3.5771484,13.762207,15.9941406,24,30.8637695,24,17.6484375,0,32-14.3554688,32-32s-14.3515625-32-32-32Zm-48-96c8.8203125,0,16,7.1757812,16,16s-7.1796875,16-16,16-16-7.1757812-16-16,7.1796875-16,16-16Zm-48-112c8.8203125,0,16,7.1757812,16,16s-7.1796875,16-16,16-16-7.1757812-16-16,7.1796875-16,16-16Zm16,464c0,8.8242188-7.1796875,16-16,16s-16-7.1757812-16-16,7.1796875-16,16-16,16,7.1757812,16,16Zm32-128c8.8203125,0,16,7.1757812,16,16s-7.1796875,16-16,16-16-7.1757812-16-16,7.1796875-16,16-16Zm-220.453125,114.0742188c-1.25-3.078125-4.2265625-4.984375-7.40625-4.984375-.7421875,0-1.4921875.1015625-2.234375.3203125-5.90625,1.71875-11.9296875,2.5898438-17.90625,2.5898438-30.09375,0-55.75-20.5-62.375-49.8554688-.0185547-.081543-.0712891-.1455078-.0922852-.2260742-1.0083008-4.5463867-1.5327148-9.2250977-1.5327148-13.918457,0-12.7265625,3.7265625-25.0195312,10.7734375-35.5507812,2.4609375-3.671875,1.4765625-8.640625-2.1953125-11.0976562-3.6640625-2.453125-8.640625-1.46875-11.1015625,2.1992188-8.8125,13.171875-13.4765625,28.5390625-13.4765625,44.4492188,0,2.5097656.1835938,5.0126953.4160156,7.5083008-31.7211914-3.769043-56.4160156-30.7895508-56.4160156-63.5083008,0-7.6000977,1.3969727-15.1567383,4.1396484-22.4614258,4.6796875-12.4257812,13.2211914-23.3398438,24.3134766-30.7651367,3.671875-2.4570312,4.65625-7.4296875,2.1953125-11.0976562-2.46875-3.6796875-7.4375-4.65625-11.1015625-2.1992188-11.0786133,7.4179688-20.1494141,17.6196289-26.340332,29.3466797-15.7226562-12.019043-25.206543-30.7836914-25.206543-50.8232422,0-23.015625,12.4921875-44.3671875,32.6015625-55.7265625.4160156-.2348633,1.7373047-1.0039062,2.0546875-1.1679688,9.125-4.7148438,19-7.1054688,29.34375-7.1054688,19.4140625,0,37.5625,8.6640625,49.78125,23.7734375,1.578125,1.953125,3.890625,2.96875,6.2265625,2.96875,1.765625,0,3.5390625-.5820312,5.0234375-1.78125,3.4375-2.7773438,3.96875-7.8164062,1.1875-11.25-15.2734375-18.8828125-37.953125-29.7109375-62.21875-29.7109375-10.4106445,0-20.7397461,2.1542969-30.3271484,6.0756836-1.0683594-4.6445312-1.6728516-9.3476562-1.6728516-14.0756836,0-32.5976562,24.5107422-59.527832,56.4121094-63.434082-.2280273,2.4707031-.4121094,4.9492188-.4121094,7.434082,0,9.1484375,1.53125,18.1210938,4.5625,26.671875,1.15625,3.2851562,4.2421875,5.3359375,7.5390625,5.3359375.8828125,0,1.7890625-.1484375,2.671875-.4609375,4.1640625-1.4765625,6.34375-6.046875,4.8671875-10.2109375-2.4140625-6.8320312-3.640625-14.0117188-3.640625-21.3359375,0-4.6948242.5253906-9.375,1.5336914-13.9228516.0205078-.0791016.0727539-.1416016.0913086-.2216797,6.625-29.3554688,32.28125-49.8554688,62.375-49.8554688,5.699707,0,11.4365234.8457031,17.0791016,2.4101562,8.3867188,2.3286133,16.3500977,6.3125,23.1474609,11.8046875,1.484375,1.1992188,3.2578125,1.78125,5.0234375,1.78125,2.3359375,0,4.6484375-1.015625,6.2265625-2.96875,2.78125-3.4335938,2.25-8.4726562-1.1875-11.25-5.7158203-4.6230469-12.1289062-8.3295898-18.8779297-11.2231445,7.2719727-11.6391602,19.0581055-19.628418,32.5888672-21.8901367v142.7802734c-31.5195312-3.9570312-56-30.8701172-56-63.4443359,0-4.4179688-3.578125-8-8-8s-8,3.5820312-8,8c0,9.0390625,1.5771484,17.6992188,4.3530273,25.809082-13.2880859,4.046875-23.6010742,14.6611328-27.0952148,28.1948242-1.1015625,4.2773438,1.4765625,8.640625,5.75,9.7421875.671875.171875,1.34375.2539062,2.0078125.2539062,3.5625,0,6.8125-2.3945312,7.7421875-6.0039062,2.1796875-8.4570312,8.78125-15.0625,17.234375-17.2421875.3730469-.0961914.6513672-.3398438.9975586-.4829102,12.6220703,21.5429688,34.9643555,36.7250977,61.0102539,39.3237305v176.921875c-17.840332,2.2524414-34.0893555,11.9443359-44.5234375,26.9013672-2.5234375,3.625-1.640625,8.6132812,1.984375,11.140625,1.3984375.9726562,2.9921875,1.4375,4.5703125,1.4375,2.53125,0,5.015625-1.1953125,6.5703125-3.421875,7.4321289-10.6572266,18.8139648-17.6816406,31.3984375-19.8183594v126.5800781c-16.2421875-2.7148438-30.0703125-13.6015625-36.453125-29.2617188Zm268.453125-194.0742188c-8.8203125,0-16-7.1757812-16-16s7.1796875-16,16-16,16,7.1757812,16,16-7.1796875,16-16,16Z"
     id="path2"
     style="fill:#27c2a0;fill-opacity:1" />
  <rect
     x="399.9999542"
     y="72"
     width="16"
     height="16"
     id="rect2"
     style="fill:#27c2a0;fill-opacity:1" />
  <rect
     x="431.9999542"
     y="72"
     width="48"
     height="16"
     id="rect3"
     style="fill:#27c2a0;fill-opacity:1" />
  <rect
     x="391.9999542"
     y="208"
     width="16"
     height="16"
     id="rect4"
     style="fill:#27c2a0;fill-opacity:1" />
  <rect
     x="327.9999542"
     y="208"
     width="48"
     height="16"
     id="rect5"
     style="fill:#27c2a0;fill-opacity:1" />
  <rect
     x="463.9999542"
     y="424"
     width="16"
     height="16"
     id="rect6"
     style="fill:#27c2a0;fill-opacity:1" />
  <rect
     x="399.9999542"
     y="424"
     width="48"
     height="16"
     id="rect7"
     style="fill:#27c2a0;fill-opacity:1" />
  <rect
     x="327.9999542"
     y="288"
     width="16"
     height="16"
     id="rect8"
     style="fill:#27c2a0;fill-opacity:1" />
  <rect
     x="359.9999542"
     y="288"
     width="48"
     height="16"
     id="rect9"
     style="fill:#27c2a0;fill-opacity:1" />
</svg>
